<svg width="26" height="25" viewBox="0 0 26 25" fill="none" xmlns="http://www.w3.org/2000/svg">
<path d="M25.0002 0C24.735 0 24.4806 0.105357 24.2931 0.292893C24.1056 0.48043 24.0002 0.734784 24.0002 1V13C24.0002 13.2652 23.8948 13.5196 23.7073 13.7071C23.5198 13.8946 23.2654 14 23.0002 14L3.4142 14.001L9.9502 7.465C10.1377 7.27749 10.2431 7.02318 10.2431 6.758C10.2431 6.49282 10.1377 6.23851 9.9502 6.051C9.76269 5.86349 9.50838 5.75815 9.2432 5.75815C8.97802 5.75815 8.72371 5.86349 8.5362 6.051L0.293201 14.294C0.200255 14.3868 0.126518 14.497 0.0762069 14.6183C0.0258962 14.7396 0 14.8697 0 15.001C0 15.1323 0.0258962 15.2624 0.0762069 15.3837C0.126518 15.505 0.200255 15.6152 0.293201 15.708L8.5362 23.951C8.62905 24.0438 8.73927 24.1175 8.86058 24.1677C8.98188 24.218 9.1119 24.2438 9.2432 24.2438C9.3745 24.2438 9.50452 24.218 9.62583 24.1677C9.74713 24.1175 9.85736 24.0438 9.9502 23.951C10.043 23.8582 10.1167 23.7479 10.1669 23.6266C10.2172 23.5053 10.2431 23.3753 10.2431 23.244C10.2431 23.1127 10.2172 22.9827 10.1669 22.8614C10.1167 22.7401 10.043 22.6298 9.9502 22.537L3.4142 16.002L24.0002 16.001C24.5306 16.001 25.0393 15.7903 25.4144 15.4152C25.7895 15.0401 26.0002 14.5314 26.0002 14.001V1.001C26.0002 0.735783 25.8948 0.48143 25.7073 0.293893C25.5198 0.106357 25.2654 0 25.0002 0Z" fill="#1266f1"/>
</svg>
