<svg width="512" height="512" viewBox="0 0 512 512" fill="none" xmlns="http://www.w3.org/2000/svg">
<rect width="512" height="512" fill="#ECECEC"/>
<path d="M318.887 174.971C318.887 209.749 290.694 237.942 255.916 237.942C221.138 237.942 192.945 209.749 192.945 174.971C192.945 140.193 221.138 112 255.916 112C290.694 112 318.887 140.193 318.887 174.971Z" fill="#A3A3A3" stroke="#A3A3A3" stroke-width="13.33"/>
<path d="M363.879 336.893C363.879 371.672 315.547 399.865 255.928 399.865C196.308 399.865 147.977 371.672 147.977 336.893C147.977 302.115 196.308 273.922 255.928 273.922C315.547 273.922 363.879 302.115 363.879 336.893Z" fill="#A3A3A3" stroke="#A3A3A3" stroke-width="13.33"/>
<path d="M168.155 130C171.348 130 174.465 130.313 177.475 130.91C170.143 143.934 165.96 158.968 165.96 174.979C165.96 190.601 169.941 205.292 176.945 218.094C174.1 218.624 171.161 218.902 168.155 218.902C142.708 218.902 122.078 199 122.078 174.451C122.078 149.901 142.708 130 168.155 130Z" fill="#A3A3A3" stroke="#A3A3A3" stroke-width="13.33"/>
<path d="M138.024 381.624C127.806 369.409 120.979 354.42 120.979 336.896C120.979 319.908 127.395 305.303 137.096 293.297C102.827 295.956 76 314.698 76 337.425C76 360.365 103.299 379.245 138.024 381.624Z" fill="#A3A3A3" stroke="#A3A3A3" stroke-width="13.33"/>
<path d="M345.874 174.979C345.874 190.601 341.893 205.292 334.888 218.094C337.735 218.624 340.673 218.902 343.679 218.902C369.127 218.902 389.756 199 389.756 174.451C389.756 149.901 369.127 130 343.679 130C340.486 130 337.369 130.313 334.359 130.91C341.691 143.934 345.874 158.968 345.874 174.979Z" fill="#A3A3A3" stroke="#A3A3A3" stroke-width="13.33"/>
<path d="M373.812 381.624C408.537 379.245 435.835 360.365 435.835 337.425C435.835 314.698 409.008 295.956 374.739 293.297C384.44 305.303 390.856 319.908 390.856 336.896C390.856 354.42 384.03 369.409 373.812 381.624Z" fill="#A3A3A3" stroke="#A3A3A3" stroke-width="13.33"/>
</svg>
