<svg xmlns="http://www.w3.org/2000/svg" xmlns:xlink="http://www.w3.org/1999/xlink" width="30" height="30" viewBox="0 0 30 30">
  <defs>
    <clipPath id="clip-Music_Folder_2">
      <rect width="30" height="30"/>
    </clipPath>
  </defs>
  <g id="Music_Folder_2" data-name="Music Folder – 2" clip-path="url(#clip-Music_Folder_2)">
    <g id="Group_10" data-name="Group 10" transform="translate(2862.468 691.145)">
      <g id="File" transform="translate(-2866.468 -1164.086)" fill="#fff" stroke-linejoin="round">
        <path d="M 29.23952865600586 501.5606384277344 L 9.264688491821289 501.5606384277344 C 8.579097747802734 501.5606384277344 7.999898433685303 500.7306213378906 7.999898433685303 499.7481384277344 L 7.999898433685303 476.7539978027344 C 7.999898433685303 475.7713928222656 8.579097747802734 474.9412841796875 9.264688491821289 474.9412841796875 L 25.12186050415039 474.9412841796875 L 30.52643775939941 479.7196044921875 L 30.50423812866211 499.7470397949219 C 30.50423812866211 500.7306213378906 29.92506790161133 501.5606384277344 29.23952865600586 501.5606384277344 Z" stroke="none"/>
        <path d="M 9.29871940612793 475.9412841796875 C 9.199312210083008 476.0073852539062 8.999900817871094 476.2992858886719 8.999900817871094 476.7539978027344 L 8.999900817871094 499.7481384277344 C 8.999900817871094 500.2027282714844 9.199302673339844 500.4945373535156 9.298698425292969 500.5606384277344 L 29.2054557800293 500.5606384277344 C 29.30485916137695 500.4945068359375 29.50424003601074 500.2025451660156 29.50424003601074 499.7459106445312 L 29.52419853210449 481.7407836914062 L 24.94575881958008 481.7385864257812 C 24.41178894042969 481.7383117675781 23.90008926391602 481.5245666503906 23.52463150024414 481.1448669433594 C 23.149169921875 480.7651977539062 22.94112968444824 480.2511596679688 22.94683074951172 479.7171936035156 L 22.98719024658203 475.9412841796875 L 9.29871940612793 475.9412841796875 M 9.264690399169922 473.9412841796875 L 25.50053977966309 473.9412841796875 L 31.52693939208984 479.2693786621094 L 31.50424003601074 499.7481384277344 C 31.50424003601074 501.3013000488281 30.49026870727539 502.5606384277344 29.23953056335449 502.5606384277344 L 9.264690399169922 502.5606384277344 C 8.013870239257812 502.5606384277344 6.999900817871094 501.3013000488281 6.999900817871094 499.7481384277344 L 6.999900817871094 476.7539978027344 C 6.999900817871094 475.2006225585938 8.013870239257812 473.9412841796875 9.264690399169922 473.9412841796875 Z M 30.21511077880859 479.7411193847656 L 24.99776077270508 474.9635314941406 L 24.94672012329102 479.7385864257812 L 30.21511077880859 479.7411193847656 Z" stroke="none" fill="#3eb0f4"/>
      </g>
      <path id="MP3" d="M26.422,483.835l-8.111,1.67-.011,7.652a8.355,8.355,0,0,0-.9-.054,2.393,2.393,0,0,0-2.341,1.964,1.652,1.652,0,0,0,2.028,1.535c1.19-.227,2.617-.856,2.8-1.794-.087.44,0-.417,0-.417v-7.216l4.965-1.252-.033,5.977a2.509,2.509,0,0,0-.474-.048,2.227,2.227,0,0,0-2.188,1.964,1.652,1.652,0,0,0,2.028,1.536,2.528,2.528,0,0,0,2.24-1.794,1.147,1.147,0,0,0,.025-.4Z" transform="translate(-2867.944 -1165.9)" fill="#3eb0f4"/>
    </g>
  </g>
</svg>
