<svg xmlns="http://www.w3.org/2000/svg" xmlns:xlink="http://www.w3.org/1999/xlink" width="30" height="30" viewBox="0 0 30 30">
  <defs>
    <clipPath id="clip-Video_Folder_2">
      <rect width="30" height="30"/>
    </clipPath>
  </defs>
  <g id="Video_Folder_2" data-name="Video Folder – 2" clip-path="url(#clip-Video_Folder_2)">
    <g id="Group_11" data-name="Group 11" transform="translate(3 1)">
      <g id="File" transform="translate(-7 -548.941)" fill="#fff" stroke-linejoin="round">
        <path d="M 28.98256683349609 576.2299194335938 L 9.238527297973633 576.2299194335938 C 8.567116737365723 576.2299194335938 7.999897003173828 575.414794921875 7.999897003173828 574.4500122070312 L 7.999897003173828 551.721435546875 C 7.999897003173828 550.7564697265625 8.567116737365723 549.9412841796875 9.238527297973633 549.9412841796875 L 24.90811729431152 549.9412841796875 L 30.24305725097656 554.6580810546875 L 30.22111701965332 574.4489135742188 C 30.22111701965332 575.414794921875 29.65392684936523 576.2299194335938 28.98256683349609 576.2299194335938 Z" stroke="none"/>
        <path d="M 9.279970169067383 550.9412841796875 C 9.192113876342773 551.0062255859375 8.999897003173828 551.270751953125 8.999897003173828 551.721435546875 L 8.999897003173828 574.4500122070312 C 8.999897003173828 574.900634765625 9.192081451416016 575.1650390625 9.279888153076172 575.2299194335938 L 28.9411506652832 575.2299194335938 C 29.02896499633789 575.1650390625 29.22111701965332 574.9004516601562 29.22111701965332 574.4478149414062 L 29.24082183837891 556.673828125 L 24.73834609985352 556.6715698242188 C 24.20438766479492 556.6713256835938 23.69269561767578 556.45751953125 23.31724739074707 556.077880859375 C 22.94179725646973 555.6981811523438 22.73376655578613 555.1841430664062 22.73946762084961 554.6502075195312 L 22.77911758422852 550.9412841796875 L 9.279970169067383 550.9412841796875 M 9.238527297973633 548.9412841796875 L 25.28678703308105 548.9412841796875 L 31.24355697631836 554.2078857421875 L 31.22111701965332 574.4500122070312 C 31.22111701965332 575.9852905273438 30.21885681152344 577.2299194335938 28.98256683349609 577.2299194335938 L 9.238527297973633 577.2299194335938 C 8.002157211303711 577.2299194335938 6.999897003173828 575.9852905273438 6.999897003173828 574.4500122070312 L 6.999897003173828 551.721435546875 C 6.999897003173828 550.1861572265625 8.002157211303711 548.9412841796875 9.238527297973633 548.9412841796875 Z M 29.94687652587891 554.6741943359375 L 24.78981781005859 549.95166015625 L 24.73935699462891 554.6715698242188 L 29.94687652587891 554.6741943359375 Z" stroke="none" fill="#208cce"/>
      </g>
      <path id="MP4" d="M26.719,559.064H13v14.465H26.719ZM15.426,562.23H13.8V560.6h1.626Zm0,3.24H13.8v-1.607h1.626Zm0,3.233H13.8v-1.626h1.626Zm0,3.208H13.8v-1.632h1.626Zm10.5-9.682H24.3V560.6h1.626Zm0,3.24H24.3v-1.607h1.626Zm0,3.233H24.3v-1.626h1.626Zm0,3.246H24.3V570.3h1.626Z" transform="translate(-8.002 -550.892)" fill="#208cce"/>
    </g>
  </g>
</svg>
