<svg xmlns="http://www.w3.org/2000/svg" width="28" height="28" viewBox="0 0 28 28">
  <g id="Icon_feather-settings" data-name="Icon feather-settings" transform="translate(-0.5 -0.5)">
    <path id="Path_3837" data-name="Path 3837" d="M18,12.5A5.5,5.5,0,1,1,12.5,18,5.506,5.506,0,0,1,18,12.5Zm0,9A3.5,3.5,0,1,0,14.5,18,3.5,3.5,0,0,0,18,21.5Z" transform="translate(-3.5 -3.5)" fill="#707070"/>
    <path id="Path_3838" data-name="Path 3838" d="M14.6,28.5a3.152,3.152,0,0,1-3.148-3.148v-.1a1.246,1.246,0,0,0-.82-1.139l-.043-.017a1.252,1.252,0,0,0-1.379.248l-.069.069a3.15,3.15,0,1,1-4.454-4.455l.069-.069A1.247,1.247,0,0,0,5,18.511L5,18.5a1.252,1.252,0,0,0-1.146-.759h-.2a3.148,3.148,0,0,1,0-6.3h.1a1.246,1.246,0,0,0,1.139-.82q.008-.022.017-.043a1.247,1.247,0,0,0-.248-1.379l-.069-.069A3.15,3.15,0,1,1,9.041,4.683l.069.069A1.252,1.252,0,0,0,10.489,5a.737.737,0,0,1,.216-.058,1.252,1.252,0,0,0,.646-1.091v-.2a3.148,3.148,0,0,1,6.3,0v.109A1.251,1.251,0,0,0,18.407,4.9l.007,0a1.252,1.252,0,0,0,1.379-.248l.069-.069a3.15,3.15,0,1,1,4.454,4.455l-.069.069A1.247,1.247,0,0,0,24,10.489a.737.737,0,0,1,.058.216,1.252,1.252,0,0,0,1.091.646h.2a3.148,3.148,0,1,1,0,6.3h-.109a1.251,1.251,0,0,0-1.143.759l0,.007a1.247,1.247,0,0,0,.248,1.379l.069.069a3.15,3.15,0,1,1-4.455,4.454l-.069-.069A1.252,1.252,0,0,0,18.511,24L18.5,24a1.252,1.252,0,0,0-.759,1.146v.2A3.152,3.152,0,0,1,14.6,28.5Zm-3.438-5.761a2.711,2.711,0,0,1,1.763,2.487q0,.009,0,.017v.109a1.675,1.675,0,1,0,3.349,0v-.2a2.74,2.74,0,0,1,4.652-1.95l.006.006.072.072a1.676,1.676,0,1,0,2.37-2.37l-.073-.073-.006-.006a2.742,2.742,0,0,1,1.947-4.652h.111a1.675,1.675,0,1,0,0-3.349h-.2a2.726,2.726,0,0,1-2.5-1.652.737.737,0,0,1-.058-.239A2.712,2.712,0,0,1,23.2,8.077l.006-.006L23.275,8a1.676,1.676,0,1,0-2.37-2.37l-.073.073-.006.006A2.742,2.742,0,0,1,16.175,3.76V3.648a1.675,1.675,0,1,0-3.349,0v.2a2.726,2.726,0,0,1-1.652,2.5.737.737,0,0,1-.239.058A2.726,2.726,0,0,1,8.077,5.8L8.071,5.8,8,5.725a1.676,1.676,0,1,0-2.37,2.37l.073.073.006.006a2.713,2.713,0,0,1,.555,2.986,2.711,2.711,0,0,1-2.487,1.763H3.648a1.675,1.675,0,0,0,0,3.349h.2A2.742,2.742,0,0,1,5.8,20.923l-.006.006L5.725,21a1.676,1.676,0,1,0,2.37,2.37l.073-.073.006-.006a2.726,2.726,0,0,1,2.986-.555Z" transform="translate(0 0)" fill="#707070"/>
  </g>
</svg>
