<svg xmlns="http://www.w3.org/2000/svg" width="19.698" height="22.512" viewBox="0 0 19.698 22.512">
  <path id="Icon_metro-files-empty" data-name="Icon metro-files-empty" d="M5.426,9.778A21.77,21.77,0,0,1,9.535,5.67a3.507,3.507,0,0,1,2-.928h8.09A1.761,1.761,0,0,1,21.383,6.5v16.18a1.761,1.761,0,0,1-1.759,1.759H6.258A1.761,1.761,0,0,1,4.5,22.681v-10.9a3.506,3.506,0,0,1,.928-2Zm2.911-1.2a19.189,19.189,0,0,0-1.6,1.789h3.385V6.986a19.175,19.175,0,0,0-1.789,1.6Zm-2.432,14.1a.356.356,0,0,0,.352.352H19.624a.356.356,0,0,0,.352-.352V6.5a.356.356,0,0,0-.352-.352h-8.09v4.924a.7.7,0,0,1-.7.7H5.906ZM12.349,2.856a3.506,3.506,0,0,1,2-.928h8.09A1.761,1.761,0,0,1,24.2,3.687v16.18a1.762,1.762,0,0,1-1.407,1.723V3.687a.356.356,0,0,0-.352-.352h-10.7c.212-.174.418-.335.615-.479Z" transform="translate(-4.499 -1.928)" fill="#777"/>
</svg>
