<svg xmlns="http://www.w3.org/2000/svg" xmlns:xlink="http://www.w3.org/1999/xlink" width="30" height="30" viewBox="0 0 30 30">
  <defs>
    <clipPath id="clip-Like-green">
      <rect width="30" height="30"/>
    </clipPath>
  </defs>
  <g id="Like-green" clip-path="url(#clip-Like-green)">
    <path id="Like_icon_-_selected" data-name="Like icon - selected" d="M16.151,718.284c1.506.678.27,1.568,0,1.848.552.419.574,1.283-.322,1.846.225.293.69,2.993-1.779,2.993h-6.6c-.459,0-.81-.778-1.095-.956a.524.524,0,0,0-.239-.035v.221a.665.665,0,0,1-.113.354v-7.9c.113.072.221.334.318.391a10.548,10.548,0,0,0,2.674-3.053c0-.426-.17-2.022-.17-2.022,0-.161,0-.744.932-.94a1.678,1.678,0,0,1,1.584.46,3.831,3.831,0,0,1,.9,2.089c.008.126-.206,1.586-.354,2.393l3.9,0C17.742,716.049,17.007,717.451,16.151,718.284ZM5,716.956v-.009l1-.333v.039c-.017-.011-.034-.03-.052-.03Zm.526,7.918a.691.691,0,0,1-.124.025H2.709a.709.709,0,0,1-.71-.641v-6.244c0-.407.337-1.058.755-1.058H5v7.918ZM6,724.556v.318H5.526A.7.7,0,0,0,6,724.556Z" transform="translate(5.002 -702.993)" fill="#999"/>
  </g>
</svg>
