<svg xmlns="http://www.w3.org/2000/svg" xmlns:xlink="http://www.w3.org/1999/xlink" width="30" height="30" viewBox="0 0 30 30">
  <defs>
    <clipPath id="clip-More">
      <rect width="30" height="30"/>
    </clipPath>
  </defs>
  <g id="More" clip-path="url(#clip-More)">
    <g id="More_Icon_gray" data-name="More Icon gray" transform="translate(-69.417 -275.55)">
      <path id="Shape_124" data-name="Shape 124" d="M95.856,290.57a2.585,2.585,0,0,1-5.166.008,2.583,2.583,0,1,1,5.166-.008Z" fill="#777"/>
      <path id="Shape_124_copy" data-name="Shape 124 copy" d="M87,290.584a2.53,2.53,0,0,1-2.579,2.524,2.426,2.426,0,0,1-2.462-2.517A2.479,2.479,0,0,1,84.413,288,2.583,2.583,0,0,1,87,290.584Z" fill="#777"/>
      <path id="Shape_124_copy_2" data-name="Shape 124 copy 2" d="M78.019,290.6a2.4,2.4,0,0,1-2.454,2.493,2.5,2.5,0,0,1-2.587-2.485,2.583,2.583,0,0,1,2.579-2.587A2.479,2.479,0,0,1,78.019,290.6Z" fill="#777"/>
    </g>
  </g>
</svg>
