<svg xmlns="http://www.w3.org/2000/svg" width="215" height="50.38" viewBox="0 0 215 50.38">
  <g id="Group_1454" data-name="Group 1454" transform="translate(-213 -220)">
    <g id="Streams_Icon" data-name="Streams Icon" transform="translate(213 220)">
      <path id="Path_5" data-name="Path 5" d="M5759.383,6804.617s2.589-23.307,20.6-22.953c0,0-16.6-2.476-22.248,11.475l-4.59-2.764Z" transform="translate(-5753.145 -6774.146)" fill="#8bc500"/>
      <path id="Path_6" data-name="Path 6" d="M6097.184,6655.651s23.415,1.274,24.075,19.275c0,0,1.539-16.709-12.708-21.567l2.5-4.738Z" transform="translate(-6078.633 -6648.621)" fill="#b9b9b9"/>
      <path id="Path_7" data-name="Path 7" d="M6202.2,7007.953s-2.591,23.308-20.6,22.954c0,0,16.6,2.477,22.247-11.475l4.591,2.765Z" transform="translate(-6158.055 -6988.044)" fill="#fa9f22"/>
      <path id="Path_8" data-name="Path 8" d="M5900.844,7114.178s-23.416-1.274-24.076-19.275c0,0-1.539,16.71,12.708,21.566l-2.5,4.739Z" transform="translate(-5869.016 -7070.828)" fill="#7b7b7b"/>
    </g>
    <g id="STREAMS" transform="translate(203 217)">
      <text id="STREAMS-2" data-name="STREAMS" transform="translate(77 40)" fill="#333" font-size="32" font-family="HelveticaNeueLTStd-Md, Helvetica Neue LT Std" font-weight="500" letter-spacing="-0.029em"><tspan x="0" y="0">STREAMS</tspan></text>
    </g>
  </g>
</svg>
