<svg xmlns="http://www.w3.org/2000/svg" width="14.959" height="14" viewBox="0 0 14.959 14">
  <path id="Like_icon" data-name="Like icon" d="M56.086,940.251c1.5.674.269,1.561,0,1.84.55.417.571,1.277-.321,1.838.224.291.687,3.064-1.771,3.064H47.421c-.457,0-.807-.775-1.09-.952a.522.522,0,0,0-.238-.035v.22a.664.664,0,0,1-.112.352v-7.952c.112.071.22.333.317.39a10.5,10.5,0,0,0,2.662-3.039c0-.424-.169-2.013-.169-2.013,0-.16,0-.741.928-.936a1.671,1.671,0,0,1,1.577.458,3.817,3.817,0,0,1,.892,2.08c.008.126-.205,1.578-.352,2.382l3.881,0C57.67,938.026,56.938,939.422,56.086,940.251Zm-11.1-1.323v-.009l1-.332v.038c-.017-.011-.034-.03-.052-.03Zm.524,7.966a.664.664,0,0,1-.124.024h-2.68a.706.706,0,0,1-.706-.637v-6.3c0-.405.335-1.053.752-1.053h2.236V946.9Zm.472-.316v.316h-.472A.693.693,0,0,0,45.981,946.579Z" transform="translate(-41.998 -932.993)" fill="#60a5d5"/>
</svg>
