<svg xmlns="http://www.w3.org/2000/svg" xmlns:xlink="http://www.w3.org/1999/xlink" width="30" height="30" viewBox="0 0 30 30">
  <defs>
    <clipPath id="clip-Message">
      <rect width="30" height="30"/>
    </clipPath>
  </defs>
  <g id="Message" clip-path="url(#clip-Message)">
    <g id="Comment_icon_" data-name="Comment icon  " transform="translate(-27.957 -686.075)">
      <path id="Subtraction_57" data-name="Subtraction 57" d="M5320.257,3254.55a.015.015,0,0,1-.012,0,.008.008,0,0,1,0-.007c.651-2.033.668-3.247.052-3.605-1.524-.885-3.34-2.411-3.34-4.653,0-1.633,1.026-3.191,2.89-4.388a12.38,12.38,0,0,1,6.534-1.818,9.991,9.991,0,0,1,6.008,1.818,5.254,5.254,0,0,1,0,8.777,9.99,9.99,0,0,1-6.008,1.818c-.133,0-.242,0-.336,0h-.205a3.984,3.984,0,0,1-.782-.078l-.028,0a13.1,13.1,0,0,0-2.509,1.068l-.461.227-.2.1-.015.007A14.314,14.314,0,0,1,5320.257,3254.55Zm1.744-7.58V3248h6v-1.031Zm0-3V3245h8v-1.03Z" transform="translate(-5283 -2546)" fill="#999" stroke="rgba(0,0,0,0)" stroke-miterlimit="10" stroke-width="1"/>
    </g>
  </g>
</svg>
