<svg xmlns="http://www.w3.org/2000/svg" xmlns:xlink="http://www.w3.org/1999/xlink" width="30" height="30" viewBox="0 0 30 30">
  <defs>
    <clipPath id="clip-Pinned">
      <rect width="30" height="30"/>
    </clipPath>
  </defs>
  <g id="Pinned" clip-path="url(#clip-Pinned)">
    <g id="Pin_icon_selected" data-name="Pin icon selected" transform="translate(-91.378 -702.871)">
      <path id="Shape_129" data-name="Shape 129" d="M99.379,717.908l8.187,7.9s1.69-1,.132-3.564l3.356-4.5s2.1.929,3.262-.39l-6.721-6.482a2.277,2.277,0,0,0-.272,3.274l-4.443,3.532S100.831,716.2,99.379,717.908Z" fill="#999"/>
      <path id="Shape_130" data-name="Shape 130" d="M104.1,721.122a.434.434,0,0,1,.011.614l-3.667,3.8a.434.434,0,1,1-.625-.6l3.667-3.8A.434.434,0,0,1,104.1,721.122Z" fill="#999"/>
    </g>
  </g>
</svg>
